<svg enable-background="new 0 0 256 256" viewBox="0 0 256 256" xmlns="http://www.w3.org/2000/svg"><circle cx="128" cy="128.079" fill="transparent" r="128"/><path d="m128 249.079c-69.522 0-126.096-55.426-127.951-124.5-.031 1.163-.049 2.33-.049 3.5 0 70.692 57.308 128 128 128s128-57.308 128-128c0-1.171-.018-2.337-.049-3.5-1.855 69.074-58.429 124.5-127.951 124.5z" fill="transparent"/><path d="m128 7.079c69.522 0 126.096 55.426 127.951 124.5.031-1.163.049-2.329.049-3.5 0-70.692-57.308-128-128-128s-128 57.308-128 128c0 1.171.018 2.337.049 3.5 1.855-69.074 58.429-124.5 127.951-124.5z" fill="transparent"/><path d="m148.391 107.718-29.666-29.666-15.171-15.171c-8.281-8.281-19.311-12.833-31.079-12.833-11.761 0-22.799 4.552-31.072 12.833-17.136 17.136-17.136 45.015 0 62.143l44.836 44.844c8.273 8.273 19.311 12.833 31.079 12.833 7.061 0 13.866-1.647 19.956-4.754l-17.174-17.174c-.917.124-1.841.179-2.781.179-5.958 0-11.535-2.299-15.699-6.463l-44.836-44.836c-8.653-8.661-8.653-22.737 0-31.39 4.164-4.171 9.741-6.463 15.691-6.463 5.958 0 11.528 2.292 15.699 6.463l14.192 14.192 15.955 15.955 14.689 14.689c6.611 6.611 8.172 16.39 4.669 24.492l15.955 15.955c11.668-17.097 9.92-40.665-5.243-55.828z" fill="#4b0470"/><path d="m41.403 69.881c8.273-8.281 19.311-12.833 31.072-12.833 11.768 0 22.799 4.552 31.079 12.833l15.171 15.171 29.666 29.666c7.69 7.69 11.923 17.542 12.712 27.616.994-12.401-3.243-25.147-12.712-34.616l-29.666-29.666-15.171-15.171c-8.281-8.281-19.311-12.833-31.079-12.833-11.761 0-22.799 4.552-31.072 12.833-9.457 9.457-13.684 22.186-12.702 34.575.797-10.059 5.023-19.896 12.702-27.575z" fill="transparent"/><path d="m153.634 163.546c-1.523 2.229-3.27 4.35-5.243 6.323-3.309 3.301-7.053 6.02-11.116 8.079l-17.175-17.175c4.894-.59 9.399-2.773 12.91-6.284 2.043-2.043 3.604-4.389 4.669-6.898z" fill="#4b0470"/><path d="m214.597 130.975-44.837-44.844c-8.273-8.273-19.311-12.833-31.079-12.833-7.061 0-13.866 1.647-19.956 4.754-4.063 2.058-7.807 4.777-11.116 8.079-1.973 1.973-3.721 4.094-5.243 6.323-11.667 17.097-9.92 40.665 5.243 55.828l12.491 12.491c4.894-.59 9.399-2.773 12.91-6.284 2.043-2.043 3.604-4.389 4.669-6.898l-14.689-14.689c-6.611-6.611-8.172-16.39-4.669-24.492 1.064-2.509 2.626-4.855 4.669-6.898 3.511-3.511 8.017-5.694 12.91-6.284.917-.124 1.841-.179 2.781-.179 5.958 0 11.535 2.299 15.699 6.463l44.836 44.836c8.653 8.661 8.653 22.737 0 31.39-4.164 4.171-9.741 6.463-15.691 6.463-5.958 0-11.528-2.292-15.699-6.463l-14.192-14.192c-1.523 2.229-3.27 4.35-5.243 6.323-3.309 3.301-7.053 6.02-11.116 8.079l15.171 15.171c8.281 8.281 19.311 12.833 31.079 12.833 11.761 0 22.799-4.552 31.072-12.833 17.136-17.137 17.136-45.016 0-62.144z" fill="#4b0470"/><path d="m102.366 99.454c1.523-2.229 3.27-4.35 5.243-6.323 3.309-3.301 7.053-6.02 11.116-8.079 6.09-3.107 12.895-4.754 19.956-4.754 11.768 0 22.807 4.56 31.079 12.833l44.836 44.844c7.679 7.675 11.905 17.51 12.702 27.569.982-12.389-3.245-25.116-12.702-34.569l-44.836-44.844c-8.273-8.273-19.311-12.833-31.079-12.833-7.061 0-13.866 1.647-19.956 4.754-4.063 2.058-7.807 4.777-11.116 8.079-1.973 1.973-3.721 4.094-5.243 6.323-5.75 8.426-8.235 18.424-7.468 28.212.597-7.458 3.086-14.791 7.468-21.212z" fill="transparent"/></svg>